<svg id="Layer_1" enable-background="new 0 0 512 512" height="512" viewBox="0 0 512 512" width="512" xmlns="http://www.w3.org/2000/svg"><g><path d="m448.8 512h-385.6c-8.284 0-15-6.716-15-15v-101.089c0-34.252 13.129-123.61 104.691-169.394l64.267-32.134c4.65-2.324 10.172-2.076 14.594.657s7.114 7.561 7.114 12.76v49.267h34.267v-49.267c0-5.199 2.692-10.027 7.114-12.76 4.422-2.734 9.944-2.982 14.594-.657l64.267 32.134c91.542 45.774 104.692 135.107 104.692 169.394v101.089c0 8.284-6.716 15-15 15z" fill="#3a2f35"/><path d="m463.8 497v-101.089c0-34.287-13.15-123.621-104.691-169.394l-64.267-32.134c-4.65-2.325-10.172-2.077-14.594.657-4.422 2.733-7.114 7.561-7.114 12.76v49.267h-17.134v254.933h192.8c8.284 0 15-6.716 15-15z" fill="#151515"/><path d="m288.133 287.067h-64.267c-8.284 0-15-6.716-15-15v-64.267c0-8.284 6.716-15 15-15h64.267c8.284 0 15 6.716 15 15v64.267c0 8.284-6.716 15-15 15z" fill="#fff3ee"/><path d="m204.75 352.33 42.931 28.619c2.519 1.679 5.419 2.519 8.32 2.519s5.801-.839 8.32-2.519l42.932-28.619c37.662-25.113 60.147-67.13 60.147-112.396v-9.035c-2.69-1.5-5.453-2.962-8.292-4.382l-21.708-10.854v24.271c0 35.213-17.492 67.899-46.79 87.434l-34.61 23.071-34.609-23.071c-29.299-19.535-46.791-52.221-46.791-87.435v-24.27l-21.708 10.854c-2.839 1.419-5.602 2.881-8.292 4.382v9.035c0 45.266 22.485 87.283 60.15 112.396z" fill="#5f4854"/><path d="m303.133 272.067v-64.267c0-8.284-6.716-15-15-15h-32.133v94.267h32.133c8.284 0 15-6.716 15-15z" fill="#ffe4db"/><path d="m307.251 352.329c37.664-25.112 60.149-67.129 60.149-112.395v-9.035c-2.69-1.5-5.453-2.962-8.292-4.382l-21.708-10.854v24.271c0 35.213-17.492 67.899-46.79 87.434l-34.61 23.071v33.027c2.9 0 5.801-.839 8.32-2.519z" fill="#3a2f35"/><path d="m288.133 385.6h-17.133v-17.133c0-8.284-6.716-15-15-15s-15 6.716-15 15v17.133h-17.133c-8.284 0-15 6.716-15 15s6.716 15 15 15h17.133v33.2c0 8.284 6.716 15 15 15s15-6.716 15-15v-33.2h17.133c8.284 0 15-6.716 15-15s-6.716-15-15-15z" fill="#ffd600"/><path d="m271 448.8v-33.2h17.133c8.284 0 15-6.716 15-15s-6.716-15-15-15h-17.133v-17.133c0-8.284-6.716-15-15-15v110.333c8.284 0 15-6.716 15-15z" fill="#ff9c00"/><path d="m256 222.8c-52.567 0-95.333-42.766-95.333-95.333v-32.134c0-52.566 42.766-95.333 95.333-95.333s95.333 42.767 95.333 95.333v32.133c0 52.568-42.766 95.334-95.333 95.334z" fill="#ffe1d7"/><path d="m351.333 127.467v-32.134c0-52.566-42.766-95.333-95.333-95.333v222.8c52.567 0 95.333-42.766 95.333-95.333z" fill="#ffc5b7"/></g></svg>